<svg width="60" height="60" viewBox="0 0 60 60" fill="none" xmlns="http://www.w3.org/2000/svg">
  <defs>
    <linearGradient id="lg1" x1="0%" y1="0%" x2="100%" y2="100%">
      <stop offset="0%" stop-color="#4dcc70"/>
      <stop offset="100%" stop-color="#2e9e4f"/>
    </linearGradient>
    <linearGradient id="lg2" x1="0%" y1="0%" x2="100%" y2="100%">
      <stop offset="0%" stop-color="#a8f0bc"/>
      <stop offset="100%" stop-color="#4dcc70"/>
    </linearGradient>
  </defs>
  <circle cx="30" cy="30" r="28" fill="#0f2e14" stroke="url(#lg1)" stroke-width="1.2" opacity="0.8"/>
  <circle cx="30" cy="30" r="23" fill="none" stroke="rgba(77,204,112,0.15)" stroke-width="0.8"/>
  <path d="M 13 13 L 30 47 L 47 13" stroke="url(#lg1)" stroke-width="5.5" stroke-linecap="round" stroke-linejoin="round" fill="none"/>
  <path d="M 30 47 C 30 33 43 25 47 20 C 41 28 36 37 30 47 Z" fill="url(#lg2)" opacity="0.95"/>
  <path d="M 30 47 C 30 33 17 25 13 20 C 19 28 24 37 30 47 Z" fill="url(#lg1)" opacity="0.75"/>
  <line x1="30" y1="47" x2="43" y2="25" stroke="rgba(168,240,188,0.3)" stroke-width="0.8"/>
  <ellipse cx="30" cy="9" rx="4.5" ry="6" fill="url(#lg1)" opacity="0.85"/>
  <path d="M 26 7.5 C 26 2 34 2 34 7.5" fill="none" stroke="rgba(168,240,188,0.35)" stroke-width="0.8"/>
  <circle cx="30" cy="2" r="2" fill="#4dcc70" opacity="0.55"/>
  <circle cx="54" cy="18" r="1.6" fill="#4dcc70" opacity="0.35"/>
  <circle cx="54" cy="42" r="1.8" fill="#a8f0bc" opacity="0.28"/>
  <circle cx="30" cy="58" r="1.5" fill="#4dcc70" opacity="0.25"/>
  <circle cx="6" cy="42" r="1.6" fill="#4dcc70" opacity="0.3"/>
  <circle cx="6" cy="18" r="1.8" fill="#a8f0bc" opacity="0.35"/>
</svg>
